<svg id="Layer_1" data-name="Layer 1" xmlns="http://www.w3.org/2000/svg" viewBox="0 0 1894.4 1510.71"><title>brush_ico</title><path d="M1795.05,1579.48l78.51,79c-31.42,23.64-60.93,47.39-91.87,68.86-318.35,221-785,337.21-790,75.79-3.08-161.74,150.06-421.28,16.8-436.37-267.89-30.34-313,313.43-518.16,338-130.56,15.63-180-105.7-184.74-237.68-3.86-107,22.77-205.64,73.21-297.87C518.14,914.44,716.4,731.09,919.53,632.81l40.92,83.57c-140.91,74.34-256,160.1-374.92,315.54-106,138.53-185.64,284-179.58,459.15,4.33,125.19,104.28,127.42,138.53,91.26C612.26,1510.75,648.1,1442.1,714.35,1383c123.92-110.62,290.51-112.8,363.83-86.29,173.3,62.65,12.34,334.12,17.3,478.4,1.66,48.25,27.91,75.39,73.94,78.61,55.14,3.86,108.8-6.1,161.5-21.58C1601,1752.76,1756,1599.76,1795.05,1579.48Z" transform="translate(-305.23 -442.35)"/><path d="M1408.45,969.88c16.1-41.68,44.74-70.85,85.31-84.11,36.06-11.78,63.74,6.28,85.83,35.22,52.88,69.28,618.83,812.22,620,898.21-71-6.69-565.76-541.35-765.32-750.42C1408.24,1041.46,1395.06,1004.54,1408.45,969.88Z" transform="translate(-305.23 -442.35)"/><path d="M813.06,516.08c59.74-37,142.1-75.4,220.51-73.67,95,2.09,163.7,19.71,224.34,69.73,68.54,56.55,104.26,98.16,123.76,187.11,11.15,50.87,7.58,116.6-38.88,149.39-37.86,26.72-85,27.59-128.25,15.09-51.28-14.79-85-52.24-114.08-96.13-33-49.77-56.27-110.31-89.63-160C948.46,514.8,879,520.06,814.07,520.06,813.74,518.73,813.4,517.4,813.06,516.08Z" transform="translate(-305.23 -442.35)"/><path d="M2070.57,1421.3c-21.53-30.41-42.09-58.88-61.73-88-8.46-12.57,39.16-68.68,33-165-11.48-180-89.12-319.81-232.69-418.19-133.43-91.43-278.1-103.52-334.29-112.83-8.47-1.4-7.49-2-67.92-98-.58-.93-.76-2.14-1.52-4.39,6.44,0,12.2-.25,17.93,0C2150.29,571.11,2218.36,1180.47,2070.57,1421.3Z" transform="translate(-305.23 -442.35)"/></svg>