<?xml version="1.0" encoding="utf-8"?>
<!-- Generator: Adobe Illustrator 23.0.3, SVG Export Plug-In . SVG Version: 6.00 Build 0)  -->
<svg version="1.1" id="Layer_1" xmlns="http://www.w3.org/2000/svg" xmlns:xlink="http://www.w3.org/1999/xlink" x="0px" y="0px"
	 viewBox="0 0 4097.8 986.8" style="enable-background:new 0 0 4097.8 986.8;" xml:space="preserve">
<style type="text/css">
	.st0{fill:#FFFFFF;}
</style>
<path class="st0" d="M1085.9,287.9c-52.9-88.8-156.8-88.4-201.6-61.2c-31.9,19.4-80.2,60-79,126c1.4,77.8,77,98.2,113.2,92
	s72.8-56.5,38.9-46c-53,16.5-32.1-104.3,46.4-71c48,20.3,55.3,131.2,18.5,230.2c-49,131.9-135.6,214.6-182.7,207.5
	c-45.9-6.9-38.1-51.5-23.2-94.7s41.5-91.9,29.1-160c-15.2-83.6-117.1-115.3-114.3-97.9c3.5,22.4,24.8,20-11.4,60.1
	c-13.5,15-45.4,32.8-84.3,48.3c0.7-22.5,0.3-43.4-0.6-62.5c-3.6-78.6-43.7-134.7-100.6-166.2c-66-36.5-126.1,1.2-126.1,1.2
	s-119.7,54.3-129.7,221.6c-1.1,17.7,0.7,32.4,4.6,44.8c0.1,0.5,0.3,0.9,0.5,1.4c0.1,0.3,0.2,0.6,0.3,0.8s0.2,0.5,0.3,0.8
	c16.7,46,55.2,88.9,203,74.8c24.2-2.4,48.2-6.8,71.7-13.3c-8.6,28-22.3,54.8-43.4,86.4c-51,76.5-149.7,46-145-10.6
	c0.9-10.8-61.7,6.2-73.1,67.2c-23.6,126.2,178,157.1,260.5,21.2c35.5-58,59.3-122.3,70.3-189.4c64.2-29.2,103.1-63.4,103.1-63.4
	s-33.8,90.2-31.5,168s46,131.7,108.1,135.6s104.6-18,157.2-67.6c61.3-57.8,119.5-160.7,142.2-266
	C1127.4,412.4,1125.2,354,1085.9,287.9z M448.1,557.9c-61.6-6.6-57.9-74.5-56.6-87.1c7.2-49.4,37.7-74.3,57.8-89.8
	c30.7-23.6,119.5-1.1,122.1,95.4c0.7,24.9,0.8,46.6,0,66.2C527.5,554.7,482.3,561.6,448.1,557.9L448.1,557.9z"/>
<path class="st0" d="M573.7,234.9c49.5,23.6,62.3,47,77.2,66.6c14.3,18.8,33.1,50.2,43.1,32.4s24.7-59.5,71.3-109.5
	c44.2-47.4,103.7-82.5,158.5-86.2c53-3.5-12.4-38.9-97.3-26.3s-122.3,47.3-155.3,94.4c-14.7,21-25.3-28.3-96-28.3
	c-47.3,0-87.2,17.3-80.1,29.1S518.1,208.4,573.7,234.9z"/>
<path class="st0" d="M1241.5,801.7V690.6h13.5c7.5-4.5,14.1-10.5,19.3-17.6c5.5-7.3,10.8-17.9,16-31.7c5.2-13.8,9.5-32.2,13-55.3
	c3.5-23.1,6.1-51,7.9-83.7l6.5-106.4h151.1v294.6h35.7v111.1h-43.9l-4.1-67.2h-165.8l-4.1,67.2H1241.5z M1312.2,690.6h97.2V440.5
	h-42.5l-3.1,72.1c-0.8,18.8-2,35.9-3.6,51.3c-1.6,15.4-3.2,28.4-4.9,39c-1.5,10-3.9,19.9-7,29.5c-3,9.1-5.6,16.1-7.7,21.2
	c-2.4,5.6-5.5,10.9-9.2,15.7c-2.9,4-6,7.8-9.3,11.4C1320,683,1316.6,686.3,1312.2,690.6L1312.2,690.6z"/>
<path class="st0" d="M1607.8,738.4c-27.6,0-47.5-7.6-59.6-22.9c-12.1-15.2-18.2-37.8-18.2-67.5v-68.4c0-29.8,6.1-52.3,18.4-67.6
	c12.3-15.2,32-22.9,59.2-22.9c14.4,0,26.6,2.1,36.4,6.3c9.5,3.9,17.5,10.6,23.1,19.2c5.7,9.1,9.7,19.2,11.7,29.7
	c2.3,11.2,3.5,24.7,3.5,40.5v31.7h-95.6v36.3c0,5,0,9,0.1,11.7s0.3,6.2,0.7,10.1c0.2,3.1,0.9,6.2,1.9,9.2c1,2.3,2.2,4.5,3.6,6.6
	c1.4,2.2,3.5,3.9,5.9,4.8c2.7,1,5.7,1.5,8.6,1.4c7.6,0,12.9-2.7,15.9-8.1c3-5.4,4.5-13.2,4.5-23.4v-13.9h54.1v9.6
	c0,25.1-6.2,44.2-18.7,57.5C1651,731.7,1632.4,738.4,1607.8,738.4z M1586.8,587.9h41.2v-23.1c0-12.2-1.5-21-4.6-26.3
	c-3.1-5.3-8.5-8-16.2-8c-7.9,0-13.3,3-16.1,9s-4.3,16.9-4.3,32.7L1586.8,587.9z"/>
<path class="st0" d="M1721.6,734.5V492.8h76.8c14.4,0,26.6,1.5,36.7,4.4c10,2.9,17.7,7.2,23,12.8c5.1,5.2,8.9,11.5,11.3,18.4
	c2.4,7.5,3.6,15.3,3.6,23.2c0.3,14-2.3,25.2-7.8,33.6s-14.2,14.3-26.3,17.7c15,3.3,25.4,10.2,31.3,20.8s8.9,24.2,8.9,40.7
	c0,23.6-6.1,41.1-18.3,52.8c-12.2,11.6-33.1,17.5-62.8,17.5H1721.6z M1777.7,588.5h18.4c8.4,0,14.6-2.4,18.6-7.3
	c4-4.8,5.9-12.8,5.9-23.8c0-10.2-2.3-17.6-6.9-22.3c-4.6-4.6-12-7-22.1-7h-13.9V588.5z M1777.7,697.4h12.3c3.4,0,6.8-0.1,10.2-0.5
	c3-0.4,6-1.2,8.8-2.5c3-1.2,5.6-3.1,7.6-5.6c2.2-3.1,3.8-6.6,4.7-10.3c1.3-5.2,1.9-10.6,1.8-16c0-5.3-0.3-10.6-0.9-15.8
	c-0.4-3.7-1.5-7.4-3.3-10.7c-1.3-2.4-2.9-4.5-4.7-6.5c-1.8-1.8-4.1-3-6.6-3.6c-2.4-0.7-4.9-1.1-7.4-1.3c-2.1-0.1-5.1-0.2-8.9-0.2
	h-13.5L1777.7,697.4z"/>
<path class="st0" d="M1895.9,734.5l41.9-101.1c-21-9-31.4-31.1-31.4-66.4c0-25.5,7.4-44.2,22.1-56.1c14.7-12,38.7-18,72.1-18.2h66.4
	v241.8h-57.2v-91.1c-4.2,0-10.6-0.1-19-0.4l-33.5,91.5H1895.9z M2007,610.4h2.7v-85.2h-2.3c-17.6,0-30.2,3.2-37.9,9.6
	c-7.7,6.4-11.5,17.1-11.5,32.1c0,14.8,3.7,25.8,11.2,32.8S1989.3,610.3,2007,610.4z"/>
<path class="st0" d="M2137.7,734.5V533.4h-43.3v-40.6H2239v40.6h-44.1v201.1H2137.7z"/>
<path class="st0" d="M2339.2,738.4c-26,0-45.4-7.3-58.1-22s-19.1-35.6-19.1-62.8v-79.8c0-27.2,6.4-48.2,19.1-62.8
	c12.7-14.6,32.1-21.9,58.1-22c26.1,0,45.6,7.3,58.5,22c12.9,14.6,19.3,35.6,19.3,62.8v79.8c0,27.2-6.4,48.2-19.3,62.8
	C2384.8,731.1,2365.4,738.4,2339.2,738.4z M2339.4,698.2c4.6,0,8.4-1,11.3-3.1s5-5.2,6.3-9.5c1.3-4.1,2.1-8.2,2.6-12.5
	c0.4-4,0.6-9.2,0.6-15.6V570c0-5-0.1-9.2-0.3-12.6c-0.2-3.7-0.7-7.3-1.4-10.9c-0.5-3.3-1.6-6.4-3.4-9.3c-1.6-2.3-3.7-4.3-6.1-5.7
	c-2.9-1.6-6.2-2.5-9.6-2.3c-4.6,0-8.4,1.1-11.3,3.2c-3.1,2.4-5.4,5.8-6.3,9.6c-1.3,4.1-2.1,8.2-2.6,12.5c-0.4,4-0.6,9.2-0.6,15.6
	v87.6c0,5,0.1,9.2,0.3,12.6c0.2,3.6,0.7,7.2,1.4,10.8c0.5,3.3,1.7,6.4,3.4,9.2c1.6,2.3,3.7,4.3,6.1,5.7
	C2332.8,697.5,2336.1,698.3,2339.4,698.2z"/>
<path class="st0" d="M2456.4,734.5V492.8h76.8c14.4,0,26.6,1.5,36.6,4.4c10,2.9,17.7,7.2,23,12.9c5.1,5.2,8.9,11.5,11.3,18.4
	c2.4,7.5,3.6,15.3,3.6,23.2c0.3,14-2.3,25.2-7.8,33.6c-5.4,8.4-14.2,14.3-26.3,17.7c15,3.3,25.4,10.2,31.3,20.8s8.9,24.2,8.9,40.6
	c0,23.6-6.1,41.1-18.3,52.8c-12.2,11.6-33.1,17.5-62.8,17.5H2456.4z M2512.6,588.5h18.4c8.4,0,14.6-2.4,18.6-7.3
	c4-4.8,5.9-12.8,5.9-23.8c0-10.2-2.3-17.6-6.9-22.3s-12-7-22.1-7h-13.9L2512.6,588.5z M2512.6,697.4h12.3c3.4,0,6.8-0.1,10.2-0.5
	c3-0.4,6-1.2,8.8-2.5c3-1.2,5.6-3.1,7.6-5.6c2.2-3.1,3.8-6.6,4.7-10.3c1.3-5.2,1.9-10.6,1.8-16c0-5.3-0.3-10.6-0.9-15.8
	c-0.4-3.7-1.5-7.4-3.3-10.7c-1.3-2.4-2.9-4.5-4.7-6.5c-1.8-1.8-4.1-3-6.6-3.6c-2.4-0.7-4.9-1.1-7.4-1.3c-2.1-0.1-5.1-0.2-8.9-0.2
	h-13.5L2512.6,697.4z"/>
<path class="st0" d="M2693.9,738.4c-15.2-0.1-27.7-6.1-37.5-17.9c-9.7-11.8-14.6-25.1-14.6-39.9c0-14,2.3-26.3,6.9-36.8
	c4.6-10.5,12.2-19.5,22.8-27c10.6-7.5,19.3-12.9,26.2-16.3c6.9-3.4,17.6-7.9,32.1-13.5l9.2-3.7v-20.2c0-10.9-1.3-18.9-3.8-23.9
	s-7.7-7.6-15.4-7.6c-12.7,0-19.1,8.8-19.4,26.5l-0.8,15.1l-54.7-2c0-0.8,0-2.3,0.1-4.5s0.1-3.6,0.1-4.3c1.8-25.3,9.3-43.9,22.6-55.8
	c13.3-11.8,32.2-17.8,56.9-17.8c23.8,0,41.5,6.5,53,19.4c11.5,12.9,17.3,31.2,17.3,54.9v110.4c0.1,20.3,1.6,40.6,4.5,60.7h-51.7
	c-3.1-15.8-5.1-27.6-5.9-35.5c-3.1,10.7-9,20.4-17,28.1C2716.7,734.6,2706.4,738.4,2693.9,738.4z M2715.8,694.1
	c4.4,0,8.7-1.6,13-4.9c3.9-2.9,7.3-6.2,10.3-10v-66.6c-28.3,15.7-42.5,33.4-42.5,53.3c0,8.7,1.7,15.6,5,20.6
	C2704.6,691.4,2710,694.3,2715.8,694.1z"/>
<path class="st0" d="M3129.5,738.6c-16.7,0-31-2.6-42.7-7.9c-11.3-4.9-20.9-13-27.7-23.3c-7-10.9-11.9-22.9-14.6-35.5
	c-3-13.4-4.5-29.2-4.5-47.3v-39.8h-37.8v149.7h-59.4V396h59.4v143.1h37.8v-34.5c0-18.1,1.5-33.8,4.5-47.1c2.7-12.5,7.6-24.3,14.6-35
	c6.8-10.1,16.4-18,27.7-22.8c11.7-5.1,25.9-7.6,42.7-7.6c16.6,0,30.8,2.6,42.6,7.8c11.3,4.8,21,12.7,27.9,22.9
	c7.1,10.7,12.1,22.6,14.7,35.1c3,13.3,4.5,28.9,4.5,46.8v120c0,17.8-1.5,33.5-4.5,47c-2.7,12.7-7.6,24.8-14.7,35.6
	c-6.9,10.3-16.5,18.4-27.9,23.3C3160.2,736,3146.1,738.6,3129.5,738.6z M3115,690.2c9.3,3.5,19.7,3.5,29,0c3.7-1.5,7.1-3.9,9.7-6.9
	c2.6-3.3,4.5-7.1,5.6-11.2c1.3-4.5,2.2-9.2,2.6-13.9c0.4-4.6,0.6-10.1,0.6-16.5V487.9c0.1-6.8-0.3-13.6-1.1-20.4
	c-0.7-5.3-2.2-10.5-4.5-15.4c-2.1-4.6-5.6-8.4-10.1-10.8c-4.5-2.4-10.3-3.6-17.4-3.6c-6.9,0-12.7,1.2-17.3,3.6
	c-4.5,2.3-8.1,6.1-10.1,10.8c-2.2,4.9-3.7,10.1-4.5,15.4c-0.9,6.8-1.3,13.6-1.2,20.4v153.8c0,6.4,0.2,11.9,0.6,16.5
	c0.4,4.7,1.3,9.4,2.8,13.9c1.1,4.1,3.1,7.9,5.6,11.2C3108,686.4,3111.3,688.7,3115,690.2z"/>
<path class="st0" d="M3245.6,736v-40.9c4,0.3,8,0.2,12-0.3c3.3-0.4,6.5-1.5,9.3-3.3c2.5-1.5,4.9-3.3,7-5.4c1.9-1.9,3.6-5,5.1-9.2
	c1.4-3.9,2.6-7.8,3.6-11.8c1.1-5.3,2-10.6,2.4-15.9c0.8-7,1.3-13.4,1.7-19.2s0.9-13.7,1.4-23.7l7.4-113.5h140.5v241.8h-57V533.8
	h-34.5l-4.6,75.5c-1,17.7-2.2,32.8-3.8,45.3c-1.3,11.3-3.5,22.5-6.4,33.5c-2.7,9.8-5.9,17.7-9.6,23.7c-3.6,5.9-8.3,10.9-14,14.8
	c-5.7,3.9-12.2,6.6-19,8c-8.3,1.5-16.8,2.3-25.2,2.1C3256.5,736.9,3251.1,736.6,3245.6,736z"/>
<path class="st0" d="M3480.1,734.5V492.8h46.6v144.4l67.6-144.4h44.5v241.8h-46.6v-145l-66.6,145H3480.1z"/>
<path class="st0" d="M3665.5,734.5l41.9-101.1c-21-9-31.4-31.1-31.4-66.4c0-25.5,7.4-44.2,22.1-56.1c14.7-12,38.7-18,72.1-18.2h66.4
	v241.8h-57.2v-91.1c-4.2,0-10.6-0.1-19-0.4l-33.5,91.5H3665.5z M3776.6,610.4h2.7v-85.1h-2.2c-17.6,0-30.2,3.2-37.9,9.6
	s-11.5,17.1-11.5,32.1c0,14.8,3.7,25.8,11.2,32.8C3746.3,606.7,3758.9,610.3,3776.6,610.4L3776.6,610.4z"/>
</svg>
