<?xml version="1.0" encoding="utf-8"?>
<!-- Generator: Adobe Illustrator 23.0.3, SVG Export Plug-In . SVG Version: 6.00 Build 0)  -->
<svg version="1.1" id="Layer_1" xmlns="http://www.w3.org/2000/svg" xmlns:xlink="http://www.w3.org/1999/xlink" x="0px" y="0px"
	 viewBox="0 0 2000 2000" style="enable-background:new 0 0 2000 2000;" xml:space="preserve">
<style type="text/css">
	.st0{fill:#FFFFFF;}
</style>
<title>jus_logo_2020_02</title>
<path class="st0" d="M1803.3,573.5c-109.7-184.3-325.5-183.5-418.4-126.9c-66.3,40.3-166.4,124.5-164,261.5
	c2.9,161.5,159.9,203.9,234.9,190.9s151-117.3,80.8-95.4c-110.1,34.3-66.7-216.4,96.2-147.4c99.5,42.2,114.8,272.3,38.4,477.8
	c-101.8,273.7-281.4,445.4-379.3,430.7c-95.2-14.3-79.1-106.8-48.1-196.6s86.1-190.7,60.4-332c-31.6-173.5-243.1-239.3-237.4-203.1
	c7.3,46.5,51.4,41.6-23.6,124.8c-28.1,31.2-94.3,68.1-174.9,100.3c1.5-46.6,0.5-90.1-1.3-129.6c-7.6-163.2-90.6-279.6-208.9-345
	c-137-75.9-261.8,2.5-261.8,2.5s-248.4,112.6-269.2,460c-2.2,36.7,1.4,67.3,9.6,92.9c0.3,1,0.6,2,1,3c0.2,0.6,0.4,1.2,0.6,1.8
	s0.4,1.1,0.6,1.6c34.6,95.5,114.5,184.6,421.4,155.3c50.3-4.9,100.1-14.1,148.9-27.7c-17.9,58-46.3,113.6-90.1,179.4
	c-105.9,158.8-310.8,95.4-301-22c1.9-22.5-128.1,12.9-151.7,139.5c-48.9,261.8,369.5,326,540.8,44
	c83.5-137.5,125.6-271.6,145.6-393.2c133.2-60.5,214.1-131.7,214.1-131.7s-70.2,187.2-65.3,348.7s95.5,273.3,224.4,281.4
	s217.1-37.5,326.3-140.3c127.2-119.9,248.1-333.6,295.3-552.2C1889.4,831.8,1884.9,710.6,1803.3,573.5z M479.5,1133.9
	C351.6,1120.2,359.4,979.3,362,953.2c15-102.6,78.2-154.2,120-186.3c63.6-49,248.1-2.2,253.4,198.1c1.4,51.6,1.7,96.6,0,137.4
	C644.1,1127.3,550.4,1141.6,479.5,1133.9z"/>
<path class="st0" d="M740.1,463.4c102.8,48.9,129.3,97.6,160.3,138.3C930,640.6,969,705.9,989.8,669s51.2-123.6,148-227.3
	c91.8-98.4,215.2-171.3,329.1-178.9c110.1-7.3-25.7-80.8-201.9-54.7s-253.9,98.1-322.4,196c-30.5,43.6-52.4-58.7-199.3-58.7
	c-98.2,0-180.9,35.9-166.3,60.3S624.8,408.5,740.1,463.4z"/>
</svg>
