<svg id="Layer_1" data-name="Layer 1" xmlns="http://www.w3.org/2000/svg" viewBox="0 0 1774.01 347.57"><defs><style>.cls-1{fill:#fff;}</style></defs><title>logo_jus_long</title><path class="cls-1" d="M632.94,327H629.6V222c0-3.06,0-6.69-3-9.64s-6.58-3-9.64-3H562.13c-3.06,0-6,0-8.69,2.67-2.86,2.86-2.86,6.68-2.86,9.26V246c0,32.35-4.68,59.36-15.75,81h-.29c-3,0-6.68,0-9.64,3s-2.95,6.58-2.95,9.64v23.09c0,5.06.09,6.68,1.52,9.35s4.68,4.68,8.78,4.68,7.26-1.91,8.78-4.68,1.53-4.29,1.53-9.35V345.34h82.36v17.37c0,5.06.1,6.68,1.53,9.35s4.68,4.68,8.78,4.68,7.25-1.91,8.78-4.68,1.53-4.29,1.53-9.35V339.62c0-3.06,0-6.69-3-9.64S636,327,632.94,327Zm-24,0H556.21c9.54-19.09,14.31-42,14.31-70.15V227.76H609Z" transform="translate(-102.26 -72.42)"/><path class="cls-1" d="M703.37,247.42c-24.72,0-41,17.66-41,49.53,0,36.84,19.47,49.54,43.62,49.54,10.4,0,19.18-2.2,25.29-6.21,4.77-3,9.73-7.25,9.73-11.74s-4.1-8.3-8-8.3c-2.49,0-5,1.15-7.93,3.53a29.44,29.44,0,0,1-18.61,6.11c-16.13,0-24.81-10.78-24.81-27.29h51.44c2.86,0,6.11,0,8.59-2.49s2.77-5.82,2.67-8.68C743.74,265.84,728.66,247.42,703.37,247.42ZM681.61,289c.19-5.91.57-9,2.48-13.17,3.25-7.25,9.93-12.21,19.28-12.21a20.14,20.14,0,0,1,19.09,12.21c1.91,4.2,2.29,7.26,2.67,13.17Z" transform="translate(-102.26 -72.42)"/><path class="cls-1" d="M832.3,295.43c9-4.3,13.75-11.17,13.75-20.9,0-15.85-11.65-26-29.4-26H781.82c-3,0-6.4,0-9.17,2.76s-2.76,6.21-2.76,9.17v72.91c0,3,0,6.4,2.76,9.16s6.21,2.77,9.17,2.77h36.26c18.14,0,29.49-10.59,29.49-27.29C847.57,307,841.94,299.72,832.3,295.43Zm-42.94-32h22.9c9.16,0,14.32,4.48,14.32,12.4s-5,12.41-14.32,12.41h-22.9Zm24,67h-24v-27.1h24c9.16,0,14.69,5,14.69,13.36S822.57,330.45,813.41,330.45Z" transform="translate(-102.26 -72.42)"/><path class="cls-1" d="M934,248.57H900.35c-18.71,0-31.5,12.12-31.5,29.68,0,12.31,6.59,22,17,26.63l-15.08,23.86c-2.38,3.81-3.34,5.82-3.34,8.2a9.09,9.09,0,0,0,4.58,7.54,9.89,9.89,0,0,0,5.35,1.62c4.39,0,6.49-2.57,9.45-7.34l18.61-29.69H926.5v23.77c0,4.68.28,6.39,1.43,8.68,1.34,2.58,4.1,4.58,8.3,4.58s7-2,8.31-4.58c1.14-2.29,1.43-4,1.43-8.68V260.5c0-3,0-6.4-2.77-9.17S937,248.57,934,248.57Zm-7.64,45h-23c-9.35,0-15.27-5.72-15.27-14.69s5.73-14.7,15.65-14.7H926.4Z" transform="translate(-102.26 -72.42)"/><path class="cls-1" d="M1041.5,249.9c-1.91-1.14-3.72-1.33-7.92-1.33h-56.5c-4.2,0-6,.19-7.92,1.33a8.92,8.92,0,0,0,0,14.89c1.9,1,3.72,1.34,7.92,1.34h18.51v66.71c0,4.68.29,6.39,1.43,8.68,1.34,2.58,4.11,4.58,8.31,4.58s7-2,8.3-4.58c1.15-2.29,1.43-4,1.43-8.68V266.13h18.52c4.2,0,6-.29,7.92-1.34a8.92,8.92,0,0,0,0-14.89Z" transform="translate(-102.26 -72.42)"/><path class="cls-1" d="M1099.43,247.42c-13.17,0-22.62,5-28.92,11.45-9.45,9.74-11.36,21.76-11.36,38.08s1.91,28.35,11.36,38.08c6.3,6.49,15.75,11.46,28.92,11.46s22.62-5,28.91-11.46c9.36-9.73,11.36-21.76,11.36-38.08s-2-28.34-11.36-38.08C1122.05,252.38,1112.6,247.42,1099.43,247.42Zm14.12,76c-3.63,3.72-8.21,5.54-14.12,5.54s-10.5-1.82-14.13-5.54c-5.82-5.82-6.68-15.84-6.68-26.44s.86-20.51,6.68-26.43c3.63-3.72,8.21-5.54,14.13-5.54s10.49,1.82,14.12,5.54c5.82,5.92,6.68,15.84,6.68,26.43S1119.37,317.57,1113.55,323.39Z" transform="translate(-102.26 -72.42)"/><path class="cls-1" d="M1228.55,295.43c9-4.3,13.74-11.17,13.74-20.9,0-15.85-11.64-26-29.39-26h-34.84c-3,0-6.39,0-9.16,2.76s-2.77,6.21-2.77,9.17v72.91c0,3,0,6.4,2.77,9.16s6.2,2.77,9.16,2.77h36.27c18.13,0,29.49-10.59,29.49-27.29C1243.82,307,1238.19,299.72,1228.55,295.43Zm-43-32h22.91c9.16,0,14.31,4.48,14.31,12.4s-5,12.41-14.31,12.41H1185.6Zm24.05,67H1185.6v-27.1h24.05c9.17,0,14.7,5,14.7,13.36S1218.82,330.45,1209.65,330.45Z" transform="translate(-102.26 -72.42)"/><path class="cls-1" d="M1302,247.42c-10,0-17.84,1.91-24.62,5.82-5,2.87-9.07,6.78-9.07,11.17a8,8,0,0,0,2.3,6,7.42,7.42,0,0,0,5.63,2.58,12.15,12.15,0,0,0,7.06-2.58c5.63-4.29,10.78-6.49,18.51-6.49,14.22,0,20.24,6.21,20.24,18.9v6H1296.4c-22,0-33.5,11.84-33.5,28.06,0,8.21,2.77,15.65,7.74,20.71,5.82,6,13.93,8.78,26,8.78,11.83,0,18.32-2.58,26-10,.19,4.1,1,5.63,2.19,7a9.48,9.48,0,0,0,7.07,2.76,9.25,9.25,0,0,0,8.3-4.48c1.24-2.2,1.43-4,1.43-8.78V280.73C1341.64,258.78,1328,247.42,1302,247.42Zm20,62.9c0,7.15-1.24,11.54-4.3,14.41-5,4.77-10.69,5.53-17.65,5.53-12.32,0-18.23-4.87-18.23-13.65,0-9,5.82-13.93,17.27-13.93h22.91Z" transform="translate(-102.26 -72.42)"/><path class="cls-1" d="M1513.81,208.29c-15,0-26.44,5.06-35.22,13.84-11.55,11.55-13.36,23.38-13.65,45.33h-24.72V222.7c0-5-.09-6.68-1.52-9.35s-4.68-4.68-8.78-4.68-7.26,1.91-8.78,4.68-1.53,4.3-1.53,9.35V332.08c0,5.05.09,6.68,1.53,9.35s4.67,4.67,8.78,4.67,7.25-1.9,8.78-4.67,1.52-4.3,1.52-9.35V286h24.72c.19,22.81,1.82,34.93,13.65,46.67,8.78,8.78,20.23,13.84,35.22,13.84s26.34-5.06,35.12-13.84c13.17-13.17,13.74-26.72,13.74-55.26s-.57-42.09-13.74-55.26C1540.15,213.35,1528.69,208.29,1513.81,208.29ZM1534,319.57a27.31,27.31,0,0,1-20.23,8.59,27,27,0,0,1-20.24-8.59c-6.77-7.15-8-15.27-8-42.18s1.24-35.12,8-42.28a27,27,0,0,1,20.24-8.49,27.27,27.27,0,0,1,20.23,8.49c6.68,7.16,8,15.37,8,42.28S1540.72,312.42,1534,319.57Z" transform="translate(-102.26 -72.42)"/><path class="cls-1" d="M1649.9,248.57h-42.38c-3,0-6.39,0-9.16,2.76s-2.77,6.21-2.77,9.17v29c0,31.21-7.06,37.89-14.79,38.94a10.28,10.28,0,0,0-4,1.14,8.14,8.14,0,0,0-3.81,7.26,8,8,0,0,0,3.91,7.16,13.6,13.6,0,0,0,6.77,1.33c19,0,30.73-11.26,30.73-51.73V266.13h28v66.71c0,4.68.28,6.39,1.43,8.68,1.34,2.58,4.1,4.58,8.3,4.58s7-2,8.31-4.58c1.14-2.29,1.43-4,1.43-8.68V260.5c0-3,0-6.4-2.77-9.17S1652.86,248.57,1649.9,248.57Z" transform="translate(-102.26 -72.42)"/><path class="cls-1" d="M1762,247.71c-4.77,0-7.92,3-12.12,9.35l-37.69,56.31v-52.3c0-4.68-.29-6.39-1.44-8.69-1.33-2.57-4.1-4.58-8.3-4.58s-7,2-8.3,4.58c-1.15,2.3-1.43,4-1.43,8.69v72.44c0,4.48.76,7.63,3.15,9.92a9.44,9.44,0,0,0,7,2.67c4.77,0,7.92-3,12.12-9.25l37.61-56.41v52.4c0,4.68.28,6.39,1.43,8.68,1.33,2.58,4.1,4.58,8.3,4.58s7-2,8.3-4.58c1.15-2.29,1.44-4,1.44-8.68V260.31c0-4.49-.77-7.54-3.06-9.93A9.66,9.66,0,0,0,1762,247.71Z" transform="translate(-102.26 -72.42)"/><path class="cls-1" d="M1873.5,251.33c-2.76-2.76-6.2-2.76-9.16-2.76h-33.69c-18.7,0-31.49,12.12-31.49,29.68,0,12.31,6.58,22,17,26.63l-15.08,23.86c-2.39,3.81-3.34,5.82-3.34,8.2a9.06,9.06,0,0,0,4.58,7.54,9.83,9.83,0,0,0,5.34,1.62c4.39,0,6.49-2.57,9.45-7.34l18.61-29.69h21.09v23.77c0,4.68.29,6.39,1.43,8.68,1.34,2.58,4.11,4.58,8.31,4.58s7-2,8.3-4.58c1.15-2.29,1.43-4,1.43-8.68V260.5C1876.27,257.54,1876.27,254.1,1873.5,251.33Zm-16.79,42.28h-23c-9.36,0-15.27-5.72-15.27-14.69s5.72-14.7,15.65-14.7h22.62Z" transform="translate(-102.26 -72.42)"/><path class="cls-1" d="M398.09,169.56c-8.58-11.27-24.29-25.29-37.55-24.77-21.86.87-40,7.85-53.18,26.66-18.52,26.35-30,75.36-32.64,109.7-.4,5.24-5.21,5.69-9.62,9.5-4.78,4.14-10.59,5.28-16.33,7.55,7-45.3,14.41-73.67-6.85-118-2.68-5.57-5.38-11.58-10.76-14.82-9.73-5.89-20-8.9-31.48-7.9-70.58,6.13-79.33,78-75.17,92.2,1.31,4.45-1.51,9.5,1.83,13.59.35.42-4.1,5.81,2.8,14.05-1.54,1.83-1.58,6.23.3,6.76,3.65,1,1.82,10,7,13.83,1.21.89,3.22,2.6,3,3.33-1.06,3.82,2.1,4.87,3.4,7.1,2.64,4.56,2.21,6.43,12.57,15.32.18-1.62.25-2.26.33-2.91,2.87.67,2.87.67,2.25,3.64-.58,2.79.51,3.88,3.48,3.41-.23-.75-.82-1.64-.61-2.2.51-1.42,4-1.23,4.9,0a6.84,6.84,0,0,0,2.5,2.33c12.36,5.41,11.63,3.07,9.16,6.65,7.77,2,6.73,1.92,6.87,1.06-4.71-2.95-4.16-2.06-3.39-3.83l12.51,2.77c-8.32,14.11-24,33.38-28.93,38.56-9.24,9.66-26,20.05-38.54,19.59a74.91,74.91,0,0,0-15.84,1.5c-2.12.38-4,2.34-6.07,3.64,0,.79.2,2-.23,2.66-2.09,3.24-2.33,8,.84,10.48,4.19,3.32,8.89,6.81,13.81,7.88,8.37,1.82,17.07,1.69,25.21-2.38,2.48-1.25,2.52,4.5,36.66-18.91,27-18.48,35.31-34.88,47-52.93,4.87-7.52,3-3.44,23-9.83,1.57-.5,2.82-2.13,4.77-3.69l10.75-2.5c3.72,36.11,3,41.07,8.52,49.05S284,395,291.72,401.16a111.23,111.23,0,0,1,12.48,11.49c7.94,1,13.22,5.66,14.55,5.45,3.79-.62,7.45.9,11.45-.08,8.77-2.15,21.83,3.16,35.76-8.18,28.93-23.53,58.3-102.69,50.44-177C415.25,222.06,412.15,188,398.09,169.56ZM224.3,256c-1.2,12.53.68,14-7,35.82-1.84,5.25-2.59,3.87-5,11.58-26.42-6.18-34-5.21-53.12-32.68-13.06-18.77-.25-51.44,14.84-68.72,6.27-7.19,23.73-11.68,33-5.12,12.59,8.87,16.84,34.25,18.64,50.36C226.05,250,224.59,253,224.3,256Zm165.47-6.92c-.18,1.53,1.44,39.5-12.91,89.94-7.13,25.09-12.59,24.07-14.3,29.91-1.45,4.95-4.66,7.95-7.45,11.52-3.34,4.27-7.66,5-12.58,4.3-6.86-1-12.53,1.16-20.88-4.75a27.15,27.15,0,0,1-11.35-17.23c-10.43-54.74-7.32-44-5.49-63.95,6.9-75.19,11.77-88.38,30.61-110.91,7.19-8.6,23.32-8.36,35.2-2.06C380.31,191,393.3,220.42,389.77,249.06Z" transform="translate(-102.26 -72.42)"/><path class="cls-1" d="M233,133.11c9.1,12.64,22.92,37,34.22,26.2,43.5-41.64,46-47.4,69.56-61.19,10.92-6.39,10.63-26.71,1.26-25.66-3.86.44-7.66,1.53-11.72,2.39l1.46,2.51c-2.69-.56-5.18-1.93-7.14-1.32-15.83,5-19.5,6.21-57.78,41.89-3.22-5.83-.61-2.23-7.63-4.54a2.91,2.91,0,0,1-.76-2.51c2.11-3.18-.5-5-1.85-6.84-.57-.77-2.78-.12-4.24-.12-3.62-8.59-2.19-7.47-5.57-6.23-.7-1.88-1-4-2.13-5.42-1.88-2.32-4-4.9-6.52-6-5.18-2.35-10.05-5.75-16.29-5-4.71.58-9.57-.42-14.37-.52-5.74-.11-8.86,4.87-5.91,10.1C205.44,104.81,214.14,106.94,233,133.11Z" transform="translate(-102.26 -72.42)"/></svg>