<?xml version="1.0" encoding="utf-8"?>
<!-- Generator: Adobe Illustrator 23.1.0, SVG Export Plug-In . SVG Version: 6.00 Build 0)  -->
<svg version="1.1" id="Layer_1" xmlns="http://www.w3.org/2000/svg" xmlns:xlink="http://www.w3.org/1999/xlink" x="0px" y="0px"
	 viewBox="0 0 2000 2000" style="enable-background:new 0 0 2000 2000;" xml:space="preserve">
<style type="text/css">
	.st0{fill:#FFFFFF;}
</style>
<g>
	<path class="st0" d="M1249.78,1636.67c-18.52-18.6-38.34-34.82-56.68-48.36c-35.09-25.91-53.62-65.23-78.71-98.87
		c-25.06-33.6-21.75-54.48-38.68-206.47c-17.95,3.87-35.33,7.62-48.81,10.52c-8.84,6.54-14.53,13.42-21.63,15.52
		c-91.17,26.91-82.48,9.72-104.55,41.37c-53,76-90.88,145.04-213.31,222.85c-155.04,98.54-155.2,74.37-166.46,79.59
		c-36.95,17.16-76.46,17.71-114.48,10.04c-22.33-4.51-43.69-19.22-62.68-33.15c-14.39-10.56-13.33-30.51-3.84-44.14
		c1.98-2.85,0.82-7.88,1.05-11.19c9.41-5.46,17.92-13.73,27.55-15.33c23.71-3.95,48.01-7.13,71.93-6.32
		c57.02,1.93,133.06-41.79,174.97-82.46c22.48-21.81,93.62-102.96,131.39-162.34c-19.78-4.06-38.29-7.86-56.81-11.66
		c-3.52,7.43-6.02,3.69,15.37,16.13c-0.64,3.62,4.07,3.77-31.17-4.47c11.21-15.07,14.5-5.23-41.59-28c-4.42-1.79-8.31-5.9-11.35-9.8
		c-4.08-5.22-19.93-6.04-22.28-0.06c-0.92,2.34,1.73,6.1,2.77,9.25c-13.47,1.99-18.42-2.61-15.78-14.32
		c2.82-12.52,2.82-12.52-10.23-15.34c-0.33,2.72-0.67,5.43-1.51,12.26c-47.01-37.42-45.05-45.32-57.05-64.49
		c-5.89-9.41-20.27-13.81-15.43-29.9c0.93-3.1-8.17-10.26-13.69-14.04c-23.56-16.14-15.25-53.86-31.8-58.21
		c-8.53-2.24-8.37-20.74-1.37-28.45c-31.31-34.7-11.15-57.37-12.72-59.15c-15.14-17.23-2.38-38.5-8.3-57.22
		c-18.89-59.8,20.83-362.35,341.28-388.16c52.18-4.2,98.75,8.48,142.95,33.25c24.41,13.67,36.69,38.96,48.83,62.43
		c96.57,186.75,63.06,306.16,31.1,496.9c26.1-9.59,52.44-14.37,74.18-31.79c20-16.03,41.86-17.96,43.67-40.03
		c11.88-144.56,64.11-350.89,148.17-461.83c60.01-79.19,142.22-108.56,241.5-112.21c60.2-2.22,131.54,56.84,170.47,104.26
		c63.86,77.78,77.93,221.03,83.12,266.52c35.68,312.72-97.66,646-229.01,745.07c-63.26,47.71-122.53,25.37-162.36,34.42
		c-18.18,4.13-34.79-2.24-52,0.33C1309.76,1660.49,1285.83,1641,1249.78,1636.67z M1252.51,1157.35
		c-8.31,83.94-22.4,38.77,24.95,269.25c5.62,27.38,22.28,53.37,51.5,72.53c37.93,24.87,63.7,15.94,94.81,19.99
		c22.35,2.91,41.98-0.13,57.12-18.09c12.69-15.06,27.27-27.69,33.84-48.53c7.75-24.58,32.53-20.26,64.94-125.89
		c65.16-212.37,57.76-372.24,58.61-378.65c16.03-120.58-42.98-244.58-86.97-266.21c-53.92-26.52-127.16-27.55-159.83,8.67
		C1305.94,785.27,1283.85,840.8,1252.51,1157.35z M832.67,1176.64c10.93-32.45,14.35-26.63,22.72-48.76
		c34.69-91.71,26.13-98.03,31.61-150.81c1.29-12.42,7.94-25.01,6.52-36.85c-8.15-67.84-27.47-174.68-84.61-212.02
		c-42.27-27.63-121.55-8.71-150.03,21.54c-68.5,72.75-126.69,210.28-67.39,289.3C678.27,1154.7,712.7,1150.62,832.67,1176.64z"/>
	<path class="st0" d="M1356.59,225.09c-3.22-5.11-4.86-7.72-6.65-10.55c18.44-3.63,35.69-8.22,53.22-10.05
		c42.57-4.43,43.88,81.12-5.69,108.04c-106.86,58.03-118.34,82.28-315.84,257.57c-51.34,45.56-114.08-57.05-155.37-110.29
		C840.83,349.65,801.33,340.67,765.5,281.8c-13.4-22.01,0.75-42.98,26.82-42.5c21.78,0.4,43.86,4.63,65.24,2.19
		c28.35-3.24,50.45,11.08,73.95,20.95c11.49,4.83,21.09,15.66,29.63,25.44c5.1,5.84,6.49,14.91,9.67,22.82
		c15.32-5.22,8.87-9.93,25.28,26.21c6.65,0,16.66-2.7,19.27,0.54c6.12,7.6,17.95,15.41,8.38,28.79c-1.37,1.91,1.28,9.9,3.44,10.56
		c31.86,9.72,20.03-5.44,34.63,19.11c173.81-150.22,190.47-155.41,262.38-176.35C1333.06,216.97,1344.37,222.74,1356.59,225.09z"/>
</g>
</svg>
